# xmcd CD database file
#
# Track frame offsets:
#	150
#	5410
#	20281
#	43538
#	64878
#	92405
#	113003
#	132532
#	159691
#
# Disc length: 2439 seconds
#
# Revision: 0
# Processed by: cddbd v1.5.2PL0 Copyright (c) Steve Scherf et al.
# Submitted via: CDex 1.70beta2
#
DISCID=6b098509
DTITLE=Paul Nicoli - Enfin !
DYEAR=2014
DGENRE=Jazz
TTITLE0=En arrivant...
TTITLE1=rue Ferdinand
TTITLE2=Ballade pour un printemps
TTITLE3=Swing promenade
TTITLE4=Que toi et moi
TTITLE5=frenchie mélodie
TTITLE6=La tzigane
TTITLE7=Marina
TTITLE8=Près du berceau
EXTD=YEAR: 2014
EXTT0=
EXTT1=
EXTT2=
EXTT3=
EXTT4=
EXTT5=
EXTT6=
EXTT7=
EXTT8=
PLAYORDER=
